<?xml version="1.0" encoding="iso-8859-1"?>
<!-- Generator: Adobe Illustrator 17.1.0, SVG Export Plug-In . SVG Version: 6.00 Build 0)  -->
<!DOCTYPE svg PUBLIC "-//W3C//DTD SVG 1.1//EN" "http://www.w3.org/Graphics/SVG/1.1/DTD/svg11.dtd">
<svg version="1.1" id="Layer_1" xmlns="http://www.w3.org/2000/svg" xmlns:xlink="http://www.w3.org/1999/xlink" x="0px" y="0px"
	 viewBox="0 0 196.333 74.333" style="enable-background:new 0 0 196.333 74.333;" xml:space="preserve">
<g>
	<path style="fill:#FFFFFF;" d="M11.733,21.581V54.05c0,1.214,0.985,2.199,2.199,2.199H24.01c1.214,0,2.199-0.985,2.199-2.199V33.71
		c0-0.607,0.492-1.099,1.099-1.099h4.031c2.429,0,4.398,1.969,4.398,4.398V54.05c0,1.214,0.985,2.199,2.199,2.199h8.979
		c1.214,0,2.199-0.985,2.199-2.199V33.364c0-0.615,0.505-1.111,1.12-1.099l4.329,0.024c2.412,0.013,4.363,1.967,4.374,4.379
		L59.01,54.05c0,1.214,0.985,2.199,2.199,2.199h9.529c1.214,0,2.199-0.985,2.199-2.199V32.279c0-3.718-1.44-7.366-4.216-9.839
		c-3.474-3.095-9.498-4.938-19.49,0.933c-0.528,0.31-1.191,0.136-1.509-0.387C46.473,20.93,42.309,16.803,30.033,21
		c-1.624,0.555-3.318,0.931-5.03,1.056c-5.024,0.367-7.117-0.038-8.726-1.094c-0.969-0.636-2.178-0.789-3.309-0.538l-0.375,0.083
		C12.091,20.62,11.733,21.066,11.733,21.581z"/>
	<path style="fill:#FFFFFF;" d="M140.921,56.249h-9.437c-1.214,0-2.199-0.985-2.199-2.199V23.54c0-1.214,0.985-2.199,2.199-2.199
		h9.437c1.214,0,2.199,0.985,2.199,2.199v30.51C143.12,55.265,142.135,56.249,140.921,56.249z"/>
	<path style="fill:#FFFFFF;" d="M152.007,23.54v35.19c0,2.625-1.523,5.081-3.962,6.053c-4.521,1.801-10.881-0.287-10.881-0.287
		c0,3.848,4.489,8.246,14.843,8.154c4.777-0.042,8.131-2.621,10.357-5.386c2.438-3.029,3.661-6.857,3.661-10.746V23.54
		c0-1.214-0.985-2.199-2.199-2.199h-9.62C152.992,21.341,152.007,22.325,152.007,23.54z"/>
	<circle style="fill:#FFFFFF;" cx="136.202" cy="8.926" r="7.009"/>
	<circle style="fill:#FFFFFF;" cx="158.604" cy="8.926" r="7.009"/>
	<path style="fill:#FFFFFF;" d="M184.9,56.249h-9.437c-1.214,0-2.199-0.985-2.199-2.199V23.54c0-1.214,0.984-2.199,2.199-2.199
		h9.437c1.214,0,2.199,0.985,2.199,2.199v30.51C187.099,55.265,186.114,56.249,184.9,56.249z"/>
	<circle style="fill:#FFFFFF;" cx="180.181" cy="8.926" r="7.009"/>
	<path style="fill:#FFFFFF;" d="M94.606,39.092h25.346c1.347,0,2.377-1.192,2.177-2.523c-0.517-3.431-2.149-9.608-7.304-13.71
		c-3.739-3.225-8.684-5.206-14.126-5.206c-11.638,0-21.073,8.983-21.073,20.065c0,11.082,9.435,20.065,21.073,20.065l-0.092-0.148
		c0.131,0.002,0.257,0.011,0.389,0.011c15.874,0,21.508-9.483,19.447-13.194C120.443,44.452,98.591,56.684,94.606,39.092z
		 M94.743,32.221c0,0,1.054-6.459,7.215-6.459c6.666,0,7.215,6.459,7.215,6.459H94.743z"/>
</g>
</svg>
